<?xml version="1.0" standalone="no"?>
<!DOCTYPE svg PUBLIC "-//W3C//DTD SVG 20010904//EN"
 "http://www.w3.org/TR/2001/REC-SVG-20010904/DTD/svg10.dtd">
<svg version="1.0" xmlns="http://www.w3.org/2000/svg"
 width="512.000000pt" height="512.000000pt" viewBox="0 0 512.000000 512.000000"
 preserveAspectRatio="xMidYMid meet">
<metadata>
Created by potrace 1.14, written by Peter Selinger 2001-2017
</metadata>
<g transform="translate(0.000000,512.000000) scale(0.100000,-0.100000)"
fill="#000000" stroke="none">
<path d="M2530 4829 c-47 -51 -102 -111 -123 -133 -22 -23 -67 -72 -100 -109
-34 -38 -73 -81 -87 -96 -14 -15 -52 -56 -85 -92 -33 -36 -100 -109 -150 -164
-49 -54 -101 -110 -115 -125 -14 -14 -68 -73 -120 -131 -52 -57 -97 -106 -100
-109 -3 -3 -54 -59 -115 -125 -60 -66 -124 -136 -142 -155 -25 -27 -29 -37
-20 -45 7 -6 74 -40 149 -75 75 -36 137 -67 137 -70 1 -3 -67 -46 -149 -95
-137 -81 -159 -98 -243 -189 -51 -56 -121 -132 -157 -171 -35 -38 -67 -72 -70
-75 -3 -3 -52 -57 -110 -120 -57 -63 -129 -141 -160 -173 -62 -66 -69 -77 -45
-77 8 0 27 -8 41 -17 14 -9 76 -40 137 -69 61 -29 113 -56 114 -61 2 -4 -67
-48 -153 -98 -163 -94 -157 -88 -349 -301 -5 -6 -55 -60 -111 -120 -56 -60
-113 -122 -128 -139 -72 -79 -124 -134 -168 -181 l-49 -50 43 -21 c24 -12 176
-87 338 -166 352 -172 715 -350 1170 -574 184 -91 448 -221 585 -288 138 -67
287 -141 333 -163 88 -44 93 -44 157 -3 22 14 49 31 60 37 49 27 543 328 567
345 14 11 28 19 31 19 3 0 48 26 100 59 52 32 98 60 103 62 5 2 42 24 82 49
124 76 145 89 210 127 35 21 75 45 88 53 13 8 68 42 121 74 237 143 661 400
688 418 17 10 38 21 48 24 9 4 17 10 17 15 0 5 4 9 9 9 7 0 247 143 258 153 0
1 -60 65 -134 142 -74 77 -215 223 -312 324 l-176 183 -152 77 -151 76 149 90
c82 49 148 93 147 96 -3 7 -44 51 -358 379 -98 102 -195 203 -216 226 -26 26
-88 66 -179 114 -77 40 -143 75 -147 79 -4 3 60 46 141 95 l148 89 -41 42
c-61 62 -402 417 -458 478 -69 72 -426 443 -583 605 l-131 134 -84 -93z"/>
</g>
</svg>
